<svg width="280" height="80" viewBox="0 0 280 80" xmlns="http://www.w3.org/2000/svg">
  <defs>
    <linearGradient id="chipGradient" x1="0%" y1="0%" x2="100%" y2="100%">
      <stop offset="0%" stop-color="#10b981" stop-opacity="0.3"/>
      <stop offset="100%" stop-color="#059669" stop-opacity="0.1"/>
    </linearGradient>
    <filter id="glow">
      <feGaussianBlur stdDeviation="2" result="coloredBlur"/>
      <feMerge>
        <feMergeNode in="coloredBlur"/>
        <feMergeNode in="SourceGraphic"/>
      </feMerge>
    </filter>
  </defs>
  <g filter="url(#glow)">
    <rect x="10" y="20" width="40" height="40" rx="4" fill="url(#chipGradient)"/>
    <rect x="15" y="25" width="30" height="30" rx="3" fill="none" stroke="#10b981" stroke-width="2.5"/>
    <circle cx="30" cy="40" r="5" fill="#10b981"/>
    <circle cx="30" cy="40" r="3" fill="#ffffff" opacity="0.8"/>
    <line x1="30" y1="35" x2="30" y2="25" stroke="#10b981" stroke-width="2.5" stroke-linecap="round"/>
    <circle cx="30" cy="25" r="3" fill="#10b981"/>
    <line x1="35" y1="40" x2="45" y2="40" stroke="#10b981" stroke-width="2.5" stroke-linecap="round"/>
    <circle cx="45" cy="40" r="3" fill="#10b981"/>
    <line x1="25" y1="40" x2="15" y2="40" stroke="#10b981" stroke-width="2.5" stroke-linecap="round"/>
    <circle cx="15" cy="40" r="3" fill="#10b981"/>
    <line x1="30" y1="45" x2="30" y2="55" stroke="#10b981" stroke-width="2.5" stroke-linecap="round"/>
    <circle cx="30" cy="55" r="3" fill="#10b981"/>
    <circle cx="20" cy="30" r="1.5" fill="#10b981" opacity="0.6"/>
    <circle cx="40" cy="30" r="1.5" fill="#10b981" opacity="0.6"/>
    <circle cx="20" cy="50" r="1.5" fill="#10b981" opacity="0.6"/>
    <circle cx="40" cy="50" r="1.5" fill="#10b981" opacity="0.6"/>
  </g>
  <text x="65" y="45" font-family="'Segoe UI', Arial, sans-serif" font-size="28" font-weight="800" fill="#ffffff" letter-spacing="-0.5">
    Core<tspan fill="#10b981">Byte</tspan>
  </text>
  <text x="65" y="60" font-family="'Segoe UI', Arial, sans-serif" font-size="11" font-weight="600" fill="#6b7280" letter-spacing="3">
    TECH
  </text>
  <line x1="65" y1="62" x2="270" y2="62" stroke="#10b981" stroke-width="1" opacity="0.3"/>
</svg>